<?xml version="1.0" encoding="utf-8"?>
<svg width="297.011mm" height="209.973mm" viewBox="0 0 3508 2480" xmlns="http://www.w3.org/2000/svg" xmlns:xlink="http://www.w3.org/1999/xlink" version="1.2" baseProfile="tiny" xmlns:shaper="http://www.shapertools.com/namespaces/shaper">
	<defs></defs>
	<g fill="none" stroke-width="1" fill-rule="evenodd" stroke-linecap="square" stroke-linejoin="bevel">
		<g fill="none" stroke="grey" stroke-opacity="1" stroke-width="1" stroke-linecap="square" stroke-linejoin="bevel" transform="matrix(1,0,0,1,0,0)" font-family="Arial" font-size="12" font-weight="400" font-style="normal"></g>
		<g fill="none" fill-opacity="1" stroke="grey" stroke-opacity="1" stroke-width="1" stroke-linecap="butt" stroke-linejoin="miter" stroke-miterlimit="2" transform="matrix(1,0,0,1,0,0)" font-family="Arial" font-size="12" font-weight="400" font-style="normal"></g>
		<g fill="black" fill-opacity="1" stroke="black" stroke-opacity="1" stroke-width="5" stroke-linecap="round" stroke-linejoin="bevel" transform="matrix(1,0,0,1,0,0)" font-family="Arial" font-size="12" font-weight="400" font-style="normal">
			<path d="M967.54,1517.10 972.63,1520.60 977.91,1523.83 983.34,1526.78 988.92,1529.44 994.63,1531.81 1000.46,1533.87 1006.39,1535.63 1012.40,1537.07 1018.48,1538.20 1024.61,1539.01 1030.77,1539.49 1036.95,1539.65 2336.00,1539.65 2342.18,1539.49 2348.35,1539.01 2354.48,1538.20 2360.56,1537.07 2366.57,1535.63 2372.50,1533.87 2378.32,1531.81 2384.04,1529.44 2389.62,1526.78 2395.05,1523.83 2400.32,1520.60 2405.42,1517.10 2410.32,1513.34 2415.02,1509.32 2419.51,1505.06 2423.76,1500.58 2427.78,1495.88 2431.54,1490.97 2435.04,1485.88 2438.28,1480.61 2441.23,1475.17 2443.89,1469.59 2446.25,1463.88 2448.32,1458.05 2450.07,1452.12 2451.52,1446.11 2452.64,1440.03 2453.45,1433.90 2453.94,1427.74 2454.10,1421.56 2454.26,1415.38 2454.74,1409.21 2455.55,1403.08 2456.68,1397.01 2458.12,1390.99 2459.88,1385.07 2461.94,1379.24 2464.31,1373.53 2466.97,1367.94 2469.92,1362.51 2473.15,1357.24 2476.65,1352.14 2480.42,1347.24 2484.43,1342.54 2488.69,1338.05 2493.17,1333.80 2497.87,1329.78 2502.78,1326.02 2507.87,1322.52 2513.14,1319.29 2518.58,1316.34 2524.16,1313.67 2529.87,1311.31 2535.70,1309.24 2541.63,1307.49 2547.64,1306.04 2553.72,1304.92 2559.85,1304.11 2566.01,1303.63 2572.19,1303.46 3044.57,1303.46 3044.57,1539.65 2808.38,1539.65 2808.38,2012.04 446.48,2012.04 446.48,358.70 918.86,358.70 918.86,1421.56 919.02,1427.74 919.51,1433.90 920.31,1440.03 921.44,1446.11 922.88,1452.12 924.64,1458.05 926.70,1463.88 929.07,1469.59 931.73,1475.17 934.68,1480.61 937.91,1485.88 941.41,1490.97 945.18,1495.88 949.19,1500.58 953.45,1505.06 957.93,1509.32 962.63,1513.34 962.63,1513.34 967.54,1517.10z" shaper:cutDepth="0.0mm"></path>
		</g>
	</g>
</svg>